<mxfile host="app.diagrams.net" modified="2024-05-24T09:16:36.062Z" agent="Mozilla/5.0 (Windows NT 10.0; Win64; x64) AppleWebKit/537.36 (KHTML, like Gecko) Chrome/124.0.0.0 Safari/537.36" version="24.4.7" etag="7pkSpmN7wysefNijtkpY" type="github">
  <diagram name="第 1 页" id="anXyqo7dAh2orrjji1gj">
    <mxGraphModel>
      <root>
        <mxCell id="0" />
        <mxCell id="1" parent="0" />
      </root>
    </mxGraphModel>
  </diagram>
</mxfile>
